<?xml version="1.0" encoding="utf-8"?>
<!-- Generator: Adobe Illustrator 27.7.0, SVG Export Plug-In . SVG Version: 6.00 Build 0)  -->
<svg version="1.1" id="Calque_1" xmlns="http://www.w3.org/2000/svg" xmlns:xlink="http://www.w3.org/1999/xlink" x="0px" y="0px"
	 viewBox="0 0 1366 768" style="enable-background:new 0 0 1366 768;" xml:space="preserve">
<style type="text/css">
	.st0{fill:#FFFFFF;}
</style>
<g>
	<g>
		<path class="st0" d="M751.64,506.85c-11.58-18.13-43.87-58.49-43.87-58.49H554.4v32.17c0,0,0,32.29-32.29,32.29
			c12.16,0,32.29,0,32.29,0v0.12l144.62-0.03h59.96C756.71,512.25,754.04,510.61,751.64,506.85z"/>
	</g>
	<path class="st0" d="M934.59,448.52h-90.14V261.64c0-3.72-3.01-6.73-6.73-6.73h-25.56l0,0v-0.13h-96.87
		c64.58,8.2,121.09,97.12,48.44,169.65l32.29,40.36c16.15,16.14,7.64,40.58-8.07,48.44l24.22-0.12v-0.14l32.29,0.26v-0.12h90.14
		c3.72,0,6.73-3.01,6.73-6.73v-51.13C941.32,451.54,938.31,448.52,934.59,448.52z"/>
	<path class="st0" d="M699.15,319.49H553.84v64.58h145.31c0,0,32.29,0,32.29-32.29C731.44,319.49,699.15,319.49,699.15,319.49z"/>
	<path class="st0" d="M489.26,480.82V290.39v-3.31c0-32.17,0-32.17,32.29-32.29c8.07-0.03-32.29,0-32.29,0h-57.85
		c-3.72,0-6.73,3.01-6.73,6.73v244.87c0,3.72,3.01,6.73,6.73,6.73h57.85c0,0,20.13,0,32.29,0
		C489.26,513.11,489.26,480.82,489.26,480.82z"/>
</g>
</svg>
